<svg xmlns="http://www.w3.org/2000/svg" width="28" height="28" fill="none" viewBox="0 0 28 28">
  <path fill="#5C8171" d="M13.563 7.683c-2.736 0-4.694 1.299-5.87 3.896h11.556c-1.285-2.597-3.18-3.896-5.686-3.896Z"/>
  <path fill="#5C8171" d="M13.54.46C6.063.46 0 6.521 0 13.998c0 .234.007.469.019.7h3.667a12.231 12.231 0 0 1-.029-.782c0-2.675.96-4.994 2.877-6.959 1.918-1.964 4.26-2.947 7.027-2.947 2.766 0 5.052.997 6.993 2.992 1.942 1.995 2.896 4.581 2.865 7.76H7.28c.352 1.941 1.15 3.36 2.397 4.253 1.245.893 2.602 1.341 4.07 1.341 2.262 0 4.157-.94 5.685-2.82l2.912 2.201c-2.185 2.828-5.113 4.241-8.782 4.241h-.036v3.555h.012c7.477 0 13.54-6.063 13.54-13.54 0-7.476-6.063-13.54-13.54-13.54l.003.005Z"/>
</svg>
