<svg width="143" height="36" viewBox="0 0 143 36" fill="none" xmlns="http://www.w3.org/2000/svg">
<path d="M18.8632 21.0989H3.4558C3.79116 22.9513 4.5529 24.3056 5.74263 25.1583C6.93235 26.0111 8.22748 26.4391 9.628 26.4391C11.7871 26.4391 13.5964 25.5416 15.056 23.7466L17.8363 25.8482C15.7491 28.5471 12.956 29.8965 9.45393 29.8965C6.76946 29.8965 4.52256 28.9766 2.71322 27.1385C0.903873 25.3005 0 23.0168 0 20.2876C0 17.7341 0.915051 15.5207 2.74675 13.6443C4.57685 11.7695 6.81418 10.8321 9.45553 10.8321C12.0969 10.8321 14.2783 11.7839 16.1308 13.689C17.9832 15.5926 18.8951 18.0631 18.8663 21.0973L18.8632 21.0989ZM3.84865 18.0567H14.8788C13.6539 15.5766 11.8446 14.3358 9.45074 14.3358C6.83813 14.3358 4.9713 15.5766 3.84865 18.0567Z" fill="#5C8171"/>
<path d="M53.023 14.3358C50.4104 14.3358 48.5436 15.5766 47.4209 18.0567H58.451C57.2262 15.5766 55.4168 14.3358 53.023 14.3358Z" fill="#5C8171"/>
<path d="M138.838 0H24.5062C22.6905 0 21.2197 1.47239 21.2197 3.28652V32.7135C21.2197 34.5292 22.6921 36 24.5062 36H123.415L128.517 24.9459L119.403 11.3351H123.723L130.272 21.1436L134.801 11.3351H138.73L127.388 36H138.837C140.652 36 142.123 34.5276 142.123 32.7135V3.28652C142.123 1.47079 140.651 0 138.837 0H138.838ZM32.8998 30.0721L23.8068 11.3367H27.796L32.9605 21.776L37.9797 11.3367H41.9944L32.9014 30.0721H32.8998ZM49.3132 25.1583C50.503 26.0111 51.7981 26.4391 53.1986 26.4391C55.3577 26.4391 57.167 25.5416 58.6266 23.7466L61.4069 25.8482C59.3197 28.547 56.5267 29.8965 53.0245 29.8965C50.3401 29.8965 48.0932 28.9766 46.2838 27.1385C44.4745 25.3004 43.5706 23.0168 43.5706 20.2876C43.5706 17.7341 44.4857 15.5207 46.3174 13.6443C48.1475 11.7695 50.3848 10.8321 53.0261 10.8321C55.6675 10.8321 57.8489 11.7839 59.7014 13.689C61.5538 15.5926 62.4657 18.0631 62.437 21.0973H47.0296C47.365 22.9497 48.1267 24.304 49.3164 25.1567L49.3132 25.1583ZM81.7169 29.3934H77.9082V17.4658C77.9082 16.4885 77.5904 15.6788 76.9564 15.0369C76.3224 14.3949 75.516 14.0739 74.5386 14.0739C73.2691 14.0739 72.1752 14.6105 71.2553 15.682C70.3355 16.7552 69.8755 18.0487 69.8755 19.5674V29.3934H66.1115V11.3367H69.8324V14.3358C70.9263 13.1253 71.9196 12.239 72.8091 11.6769C73.6986 11.1148 74.6919 10.8337 75.7859 10.8337C77.4195 10.8337 78.8169 11.3735 79.9778 12.453C81.1372 13.5325 81.7185 14.8309 81.7185 16.348V29.3918L81.7169 29.3934ZM95.2415 14.8165H91.4775V29.3934H87.6687V14.8165H84.6697V11.2936H87.6687V6.08437H91.4775V11.3367H95.2415V14.8165ZM102.726 29.3934H98.9624V11.3367H102.726V29.3934ZM102.891 7.46254C102.314 8.03105 101.632 8.31691 100.845 8.31691C100.058 8.31691 99.3488 8.03265 98.7659 7.46254C98.183 6.89403 97.8908 6.20734 97.8908 5.40567C97.8908 4.604 98.183 3.93648 98.7659 3.35998C99.3488 2.78348 100.042 2.49603 100.845 2.49603C101.648 2.49603 102.314 2.78348 102.891 3.35998C103.467 3.93648 103.755 4.61837 103.755 5.40567C103.755 6.19296 103.466 6.89403 102.891 7.46254ZM117.215 14.8165H113.451V29.3934H109.643V14.8165H106.644V11.2936H109.643V6.08437H113.451V11.3367H117.215V14.8165Z" fill="#5C8171"/>
</svg>
