<svg xmlns="http://www.w3.org/2000/svg" width="146" height="37" fill="none" viewBox="0 0 146 37">
  <path fill="#5C8171" d="M37.986 20.126 32.729 9.5h-4.06l9.256 19.068L47.18 9.5h-4.087l-5.108 10.625Zm27.217-8.232c-1.887-1.939-4.152-2.907-6.794-2.907-2.642 0-4.963.954-6.827 2.863-1.864 1.908-2.795 4.161-2.795 6.761 0 2.779.922 5.102 2.762 6.973 1.84 1.87 4.129 2.806 6.862 2.806 3.564 0 6.408-1.374 8.532-4.121l-2.83-2.138c-1.486 1.826-3.327 2.74-5.523 2.74-1.426 0-2.744-.433-3.956-1.303-1.21-.87-1.986-2.246-2.328-4.134H67.99c.03-3.087-.898-5.603-2.786-7.54ZM52.705 16.34c1.144-2.525 3.043-3.787 5.702-3.787 2.436 0 4.276 1.261 5.523 3.787H52.702h.003Zm33.137-5.705c-1.181-1.1-2.602-1.648-4.267-1.648-1.114 0-2.124.286-3.029.858-.905.572-1.916 1.475-3.03 2.706V9.498h-3.785v18.379h3.83V17.875c0-1.545.47-2.863 1.405-3.955.935-1.093 2.049-1.636 3.34-1.636.995 0 1.815.325 2.462.98.647.654.969 1.477.969 2.473v12.14h3.875V14.6c0-1.545-.59-2.865-1.77-3.965Zm11.706-6.482h-3.875v5.303H90.62v3.585h3.053v14.838h3.875V13.041h3.831V9.5h-3.83V4.153ZM108.999 9.5h-3.831v18.38h3.831V9.5Zm-1.916-9c-.818 0-1.521.293-2.117.88-.593.585-.891 1.28-.891 2.081 0 .802.298 1.515.891 2.094s1.299.87 2.117.87c.818 0 1.496-.291 2.082-.87a2.84 2.84 0 0 0 .879-2.094c0-.816-.293-1.496-.879-2.082-.586-.586-1.28-.879-2.082-.879Zm12.832 3.653h-3.876v5.303h-3.052v3.585h3.052v14.838h3.876V13.041h3.831V9.5h-3.831V4.153ZM141.646 9.5l-4.609 9.983-6.666-9.982h-4.398l9.277 13.853-6.067 13.146h4.046l12.415-27h-3.998ZM13.563 12.183c-2.736 0-4.694 1.299-5.87 3.896h11.556c-1.285-2.597-3.18-3.896-5.686-3.896Z"/>
  <path fill="#5C8171" d="M13.54 4.96C6.063 4.96 0 11.021 0 18.498c0 .234.007.469.019.7h3.667a12.231 12.231 0 0 1-.029-.782c0-2.675.96-4.994 2.877-6.959 1.918-1.964 4.26-2.947 7.027-2.947 2.766 0 5.052.997 6.993 2.992 1.942 1.995 2.896 4.581 2.865 7.76H7.28c.352 1.941 1.15 3.36 2.397 4.253 1.245.893 2.602 1.341 4.07 1.341 2.262 0 4.157-.94 5.685-2.82l2.912 2.201c-2.185 2.828-5.113 4.241-8.782 4.241h-.036v3.555h.012c7.477 0 13.54-6.063 13.54-13.54 0-7.476-6.063-13.54-13.54-13.54l.003.005Z"/>
</svg>
