<svg width="50" height="54" viewBox="0 0 50 54" fill="none" xmlns="http://www.w3.org/2000/svg">
<g clip-path="url(#clip0_1472_523)">
<path d="M5.72023 19.4157C5.99068 19.0602 6.18131 18.732 6.30641 18.3848C6.42912 18.0353 6.49465 17.6797 6.51014 17.3004C6.54469 16.5466 6.40529 15.725 6.21348 14.9402C6.02047 14.1543 5.78576 13.4064 5.59275 12.8463C5.4057 12.291 5.26392 11.926 5.26392 11.926C5.26392 11.926 5.05542 12.2827 4.81237 12.8523C4.56932 13.4242 4.28934 14.2161 4.14041 15.0793C3.99149 15.9342 3.97123 16.8712 4.20594 17.6857C4.43588 18.4954 4.93509 19.1863 5.72023 19.4145V19.4157Z" fill="#5C8171"/>
<path d="M9.21701 17.0127C8.52837 17.3183 7.85641 17.763 7.41678 18.3468C7.19994 18.6369 7.03553 18.9627 6.96881 19.3123C6.9009 19.6595 6.91877 20.0317 7.07246 20.3943C7.89573 20.4122 8.54744 20.1886 9.11812 19.8367C9.68643 19.4823 10.1785 18.9817 10.5991 18.4657C11.0208 17.9473 11.3711 17.417 11.6237 17.0175C11.8739 16.6179 12.0204 16.3457 12.0204 16.3457C12.0204 16.3457 11.9311 16.348 11.7774 16.3635C11.6237 16.3778 11.4021 16.4051 11.1388 16.4479C10.6122 16.5359 9.90327 16.7047 9.21582 17.0127H9.21701Z" fill="#5C8171"/>
<path d="M7.37741 11.3565C7.41673 12.1436 7.71816 12.8404 8.3782 13.3303C9.07876 12.9403 9.45644 12.3457 9.67804 11.6347C9.89488 10.9248 9.95445 10.0973 9.98066 9.2816C10.0045 8.47068 9.98542 7.66332 9.98304 7.0581C9.97232 6.43624 9.96517 6.04742 9.96517 6.04742C9.96517 6.04742 9.88177 6.12352 9.74357 6.26383C9.6137 6.40413 9.42069 6.60865 9.21219 6.86191C8.78805 7.37558 8.2948 8.09851 7.93261 8.89754C7.57042 9.69538 7.34048 10.5681 7.37741 11.3553V11.3565Z" fill="#5C8171"/>
<path d="M10.4916 12.8535C9.92325 13.3005 9.55034 13.9248 9.59204 14.7012C10.3486 15.0151 11.073 14.9616 11.7366 14.7488C12.399 14.5359 13.0078 14.1578 13.5368 13.775C14.0682 13.3897 14.5197 12.9985 14.845 12.7108C15.007 12.5705 15.1369 12.4504 15.2251 12.3636C15.3168 12.2851 15.3633 12.2352 15.3633 12.2352C15.3633 12.2352 15.2822 12.2078 15.1369 12.1686C14.9903 12.1317 14.7807 12.0877 14.5245 12.0473C14.0062 11.9629 13.2997 11.926 12.5575 12.0366C11.82 12.1448 11.0634 12.4076 10.4928 12.8547L10.4916 12.8535Z" fill="#5C8171"/>
<path d="M16.1495 3.21514C16.3247 2.6563 16.4283 2.29602 16.4283 2.29602C16.4283 2.29602 16.3366 2.3305 16.1781 2.39947C16.0268 2.47438 15.8076 2.58733 15.5502 2.73121C15.2929 2.87627 14.9974 3.04987 14.6829 3.25438C14.5268 3.35783 14.3672 3.46603 14.2063 3.58018L14.0836 3.67173L13.9323 3.78469C13.8334 3.86436 13.7321 3.94402 13.6344 4.0225C12.8553 4.67409 12.2607 5.48026 12.0105 6.27215C11.7556 7.06405 11.839 7.83335 12.3334 8.48851C13.1209 8.3054 13.6571 7.86189 14.1265 7.265C14.2456 7.11874 14.3529 6.95585 14.4649 6.79414C14.5768 6.63005 14.6817 6.45526 14.7877 6.2781C14.8997 6.10212 15.0069 5.9202 15.113 5.73352C15.2095 5.55635 15.2953 5.38394 15.3811 5.2044C15.7147 4.49692 15.9732 3.76805 16.1519 3.21277L16.1495 3.21514Z" fill="#5C8171"/>
<path d="M14.7499 8.68114C14.0696 8.8916 13.5097 9.38267 13.3369 10.127C13.9731 10.6466 14.6713 10.8107 15.3278 10.8523C15.9866 10.8892 16.6073 10.8048 17.1316 10.7346C17.3532 10.7108 17.7261 10.6216 18.018 10.5396C18.3206 10.4552 18.5911 10.3624 18.8174 10.2792C19.0474 10.1948 19.232 10.1151 19.3619 10.0604C19.4918 10.0129 19.5656 9.98433 19.5656 9.98433C19.5656 9.98433 19.4906 9.92963 19.3571 9.84521C19.2237 9.75484 19.0343 9.64783 18.7972 9.52179C18.3254 9.27566 17.6629 8.97721 16.9314 8.77151C16.7467 8.71919 16.5585 8.67401 16.3691 8.63715C16.1939 8.60148 16.0116 8.57532 15.827 8.55867C15.6447 8.54916 15.4624 8.55629 15.2777 8.57294C15.0954 8.59078 14.9227 8.63358 14.7487 8.68114H14.7499Z" fill="#5C8171"/>
<path d="M18.9138 2.35903C18.7554 2.48864 18.6172 2.63846 18.4861 2.79303C18.3562 2.94404 18.2383 3.10099 18.1334 3.26508C17.7165 3.9131 17.5413 4.63484 17.7689 5.4208C18.1644 5.48619 18.5218 5.45647 18.8554 5.35421C19.0199 5.30308 19.1807 5.23293 19.3344 5.14375C19.4905 5.05933 19.6346 4.95113 19.7848 4.85125C20.3733 4.42795 20.8797 3.77755 21.3336 3.12239C21.7899 2.48507 22.1855 1.81327 22.4678 1.30079C22.7514 0.776428 22.9265 0.444687 22.9265 0.444687C22.9265 0.444687 22.8252 0.460144 22.6561 0.504139C22.4869 0.549322 22.2474 0.620664 21.9603 0.718165C21.3896 0.913166 20.6211 1.18427 19.923 1.63729C19.5691 1.85488 19.2224 2.09863 18.9138 2.36141V2.35903Z" fill="#5C8171"/>
<path d="M19.221 6.60508C18.9113 6.75728 18.6396 6.982 18.4204 7.29234C18.8291 8.00457 19.4415 8.4136 20.1063 8.62882C20.2731 8.68351 20.4446 8.72394 20.615 8.75723C20.7008 8.77269 20.7889 8.78577 20.8723 8.79647C20.9605 8.80836 21.0475 8.82263 21.138 8.83571C21.4895 8.88089 21.8398 8.89159 22.1781 8.88089C22.8513 8.83571 23.4863 8.79647 23.9474 8.71086C24.1773 8.67281 24.3668 8.62882 24.4978 8.59909C24.6313 8.57769 24.7039 8.56461 24.7039 8.56461C24.7039 8.56461 24.6444 8.49802 24.5324 8.38982C24.4204 8.27567 24.2607 8.13299 24.0558 7.96771C23.6448 7.63359 23.0598 7.21743 22.3807 6.87975C21.7087 6.5599 20.9498 6.35419 20.2278 6.35895C20.0455 6.35657 19.8727 6.38511 19.7059 6.42791C19.5368 6.46953 19.3747 6.52898 19.221 6.60508Z" fill="#5C8171"/>
<path d="M25.3926 0.992839C25.2127 1.09272 25.0375 1.19735 24.8743 1.31863C24.7158 1.44229 24.5669 1.57666 24.4311 1.71458C23.8866 2.27581 23.5733 2.95118 23.6495 3.76686C24.0224 3.90478 24.3799 3.9464 24.7254 3.90716C24.8969 3.88576 25.0673 3.84771 25.2341 3.79302C25.4033 3.7407 25.5701 3.68481 25.7321 3.60753C26.0633 3.45771 26.3862 3.24844 26.6972 3.00706C26.8532 2.8834 27.0093 2.75974 27.1642 2.63846C27.3155 2.51243 27.4668 2.38401 27.6146 2.25322C28.2031 1.71934 28.7404 1.12958 29.1443 0.72055C29.5423 0.299632 29.7996 0.00118444 29.7996 0.00118444C29.7996 0.00118444 29.391 -0.00951687 28.7774 0.0261542C28.4724 0.0475568 28.1161 0.109387 27.7349 0.180729C27.5443 0.215211 27.3489 0.258016 27.1487 0.305577C26.9509 0.353139 26.7472 0.4007 26.5494 0.479176C26.1527 0.624239 25.7595 0.793081 25.3926 0.992839Z" fill="#5C8171"/>
<path d="M24.0869 5.70499C24.355 6.48143 24.8732 7.00223 25.4654 7.34229C25.6143 7.42909 25.768 7.50162 25.9241 7.56583C26.0825 7.64074 26.2422 7.70732 26.4042 7.7644C26.7295 7.87854 27.0583 7.9594 27.3812 8.01409C27.6993 8.07592 28.0114 8.14132 28.2986 8.17342C28.4439 8.19126 28.5821 8.20196 28.7108 8.21266C28.843 8.22099 28.9658 8.22574 29.0778 8.2412C29.5257 8.29114 29.82 8.284 29.82 8.284C29.82 8.284 29.6532 7.98318 29.3434 7.55394C29.2672 7.44811 29.179 7.33278 29.0825 7.2115C28.986 7.09021 28.88 6.96537 28.7692 6.84884C28.5416 6.60866 28.2795 6.36134 27.9924 6.1271C27.8494 6.00938 27.6981 5.8988 27.542 5.78822C27.4634 5.73709 27.3812 5.68478 27.3002 5.63484C27.2215 5.58846 27.1381 5.54566 27.0547 5.50642C26.7235 5.3459 26.3768 5.22105 26.0253 5.15209C25.8526 5.12355 25.6763 5.09858 25.5047 5.10334C25.3331 5.11166 25.1628 5.13901 24.9995 5.18419C24.6683 5.27575 24.3562 5.44221 24.0869 5.70499Z" fill="#5C8171"/>
<path d="M33.9283 2.8846C34.2773 2.70267 34.6193 2.50648 34.9374 2.31624C35.2579 2.11886 35.545 1.94288 35.7916 1.79544C36.2837 1.48867 36.6042 1.26632 36.6042 1.26632C36.6042 1.26632 36.2158 1.14979 35.6165 1.02851C35.3115 0.98214 34.9541 0.939335 34.5657 0.911987C34.3727 0.89534 34.1725 0.884639 33.9688 0.879883C33.7626 0.879883 33.5518 0.892962 33.3385 0.911987C32.9167 0.947658 32.4914 1.00116 32.0899 1.11056C31.6836 1.22946 31.3024 1.38641 30.9712 1.58617C30.3064 1.97142 29.8429 2.59328 29.7285 3.40064C29.8929 3.50646 30.0573 3.58494 30.2265 3.6432C30.3933 3.70146 30.5625 3.75735 30.7317 3.77994C31.0712 3.83582 31.4227 3.80966 31.7789 3.72762C32.1328 3.65985 32.4926 3.55045 32.8548 3.39826C33.2146 3.24487 33.5792 3.05701 33.9306 2.8846H33.9283Z" fill="#5C8171"/>
<path d="M30.8186 7.27331C31.0581 7.51825 31.3274 7.72515 31.6085 7.89756C31.8873 8.0878 32.1745 8.25902 32.464 8.39219C32.6069 8.46473 32.7499 8.51704 32.8881 8.58482C33.0263 8.6514 33.1621 8.71204 33.2944 8.76436C33.5577 8.87494 33.8031 8.95223 34.0116 9.02476C34.4286 9.18528 34.7098 9.25424 34.7098 9.25424C34.7098 9.25424 34.6288 8.92132 34.4417 8.42668C34.2594 7.92134 33.9497 7.31136 33.5196 6.70733C33.4123 6.55989 33.2956 6.40294 33.1705 6.26977C33.0454 6.13541 32.9155 6.00342 32.7773 5.88333C32.5009 5.64315 32.1983 5.42318 31.8802 5.2793C31.5597 5.14256 31.2237 5.06409 30.8853 5.06409C30.7162 5.06646 30.547 5.08073 30.3802 5.13305C30.2134 5.19012 30.0466 5.26384 29.8857 5.3661C29.9632 6.18535 30.3397 6.77273 30.8162 7.2745L30.8186 7.27331Z" fill="#5C8171"/>
<path d="M36.0784 4.89169C36.219 4.99989 36.3703 5.08669 36.5264 5.15447C36.6848 5.22343 36.8493 5.27337 37.0208 5.30666C37.19 5.34114 37.3675 5.35422 37.5427 5.37325C37.9001 5.39703 38.2754 5.37325 38.6638 5.31261C39.0522 5.25316 39.4358 5.18895 39.823 5.08788C40.5974 4.8905 41.3266 4.67529 41.8818 4.48504C42.437 4.29361 42.792 4.16162 42.792 4.16162C42.792 4.16162 42.7086 4.1093 42.5549 4.02607C42.3989 3.94522 42.1773 3.83464 41.9009 3.71336C41.3564 3.45177 40.582 3.19256 39.767 3.02966C39.35 2.96189 38.9259 2.91908 38.5137 2.91908C38.3099 2.91314 38.1014 2.93454 37.9013 2.96783C37.6999 2.99637 37.5057 3.0368 37.3222 3.09149C36.9493 3.20445 36.6205 3.36021 36.3346 3.60515C36.051 3.84772 35.8234 4.15211 35.6626 4.52785C35.7925 4.6741 35.9331 4.79419 36.0772 4.89169H36.0784Z" fill="#5C8171"/>
<path d="M39.0239 11.3244C39.1335 11.3933 39.199 11.4302 39.199 11.4302C39.199 11.4302 39.199 11.341 39.1931 11.1888C39.1859 11.0319 39.1704 10.8202 39.1383 10.5598C39.1073 10.3018 39.0572 9.99978 38.9822 9.67041C38.9429 9.50989 38.9035 9.33511 38.8499 9.16864C38.7975 9.00455 38.7379 8.83333 38.67 8.6633C38.5318 8.3268 38.3698 7.97723 38.1672 7.67403C37.9611 7.37439 37.724 7.09615 37.456 6.87024C37.3225 6.75371 37.1772 6.66572 37.0259 6.58725C36.8769 6.51353 36.7185 6.45526 36.5565 6.41127C36.3944 6.37084 36.2276 6.34825 36.0561 6.34825C35.8809 6.35657 35.7022 6.38987 35.5223 6.44813C35.4544 6.84883 35.4735 7.22338 35.5485 7.56582C35.6272 7.9047 35.7546 8.23644 35.9214 8.52894C36.0072 8.67638 36.099 8.81431 36.2002 8.94986C36.2503 9.01763 36.3039 9.08065 36.3587 9.14248C36.4087 9.20788 36.4635 9.27447 36.5183 9.33748C36.7376 9.59432 36.9794 9.82023 37.2225 10.0236C37.4619 10.2388 37.7026 10.4338 37.9361 10.5979C37.9933 10.6383 38.0505 10.6763 38.1077 10.7156C38.1625 10.7584 38.2173 10.7941 38.2673 10.8345C38.3722 10.9106 38.4734 10.9795 38.5664 11.0402C38.7534 11.1638 38.9131 11.2566 39.0227 11.3232L39.0239 11.3244Z" fill="#5C8171"/>
<path d="M41.0801 7.10211C41.2552 7.45168 41.4911 7.7097 41.7651 7.90946C42.0308 8.1223 42.3442 8.26617 42.6909 8.36367C43.3688 8.57532 44.179 8.60861 44.9605 8.5991C45.1583 8.59672 45.3561 8.5884 45.5467 8.5777C45.7349 8.57175 45.922 8.55867 46.1019 8.54441C46.4641 8.51825 46.8001 8.48257 47.0896 8.44928C47.6579 8.39102 48.0356 8.328 48.0356 8.328C48.0356 8.328 47.9605 8.2626 47.8354 8.14846C47.7055 8.03788 47.5221 7.87855 47.2802 7.70614C47.0383 7.53254 46.7619 7.32683 46.4379 7.13659C46.1126 6.94991 45.7635 6.75372 45.3847 6.59439C45.0034 6.43744 44.6126 6.29475 44.2111 6.20914C43.8096 6.12234 43.4105 6.08191 43.0304 6.09975C42.2596 6.1485 41.5733 6.4517 41.0813 7.1033L41.0801 7.10211Z" fill="#5C8171"/>
<path d="M41.4933 12.7988C41.684 13.0627 41.877 13.3124 42.0724 13.5253C42.2606 13.7452 42.4381 13.9462 42.599 14.1043C42.7586 14.2625 42.8885 14.4016 42.985 14.4919C43.0767 14.5823 43.1339 14.6311 43.1339 14.6311C43.1339 14.6311 43.209 14.2922 43.2614 13.7631C43.2876 13.4991 43.3007 13.1959 43.2983 12.8594C43.296 12.5241 43.2745 12.1602 43.2149 11.8023C43.1101 11.0747 42.8611 10.341 42.4441 9.78099C42.2296 9.5087 41.9771 9.27922 41.6852 9.1187C41.3885 8.96888 41.0466 8.8904 40.6737 8.90943C40.3448 9.66327 40.3734 10.3755 40.564 11.0247C40.6558 11.3565 40.7928 11.6704 40.9572 11.9605C41.1157 12.2577 41.298 12.5431 41.4922 12.7999L41.4933 12.7988Z" fill="#5C8171"/>
<path d="M10.6132 11.3505C8.83085 13.4944 7.61084 16.109 6.57431 18.6738C5.72245 20.7736 4.33325 23.4668 3.03819 26.2099C2.26734 23.7438 1.64066 21.3111 1.31063 19.3551C1.27132 19.0983 -0.0737915 20.4157 0.0024591 20.663C0.687523 22.9329 1.51913 25.2384 2.43652 27.5107C1.30706 29.9922 0.33963 32.444 7.62705e-05 34.4618C-0.0440061 34.7162 1.31063 35.5058 1.35472 35.2513C1.67521 33.3393 2.24589 31.1182 2.97266 28.8044C4.57511 32.614 6.38725 36.281 8.11719 39.4534C9.99844 42.8956 12.6648 45.4806 16.2117 47.1797C19.4952 48.7552 23.1255 49.8645 26.7724 50.0286C31.8228 50.2545 36.7779 48.5625 41.036 45.936C42.2822 45.1679 43.5249 44.307 44.6817 43.3546C45.0022 43.4378 45.3144 43.4497 45.6063 43.3926C45.9554 43.3296 46.289 43.1929 46.5892 42.986C47.1992 42.5876 47.6936 41.9396 48.0594 41.2773C48.4264 40.6115 48.6563 39.9195 48.779 39.401C48.8422 39.1406 48.8803 38.9254 48.8993 38.7768C48.9077 38.7019 48.9148 38.6436 48.9172 38.6044C48.922 38.5699 48.922 38.5497 48.922 38.5497C48.922 38.5497 48.9017 38.5556 48.8696 38.5711C48.835 38.5901 48.7814 38.6127 48.7159 38.6472C48.5824 38.715 48.393 38.8125 48.1654 38.9361C47.7067 39.1823 47.1075 39.5176 46.5213 39.9147C46.2246 40.1097 45.9446 40.3344 45.6766 40.5639C45.5443 40.6792 45.4192 40.8029 45.306 40.9313C45.1869 41.0562 45.0785 41.1858 44.9808 41.3249C44.7925 41.6043 44.6365 41.8968 44.5531 42.2262C44.4911 42.4747 44.4625 42.7375 44.4804 43.0205C42.312 44.8504 39.7922 46.3486 37.264 47.49C34.0448 48.9418 30.5349 49.7159 26.9964 49.6327C23.1421 49.5435 19.2271 48.2605 15.803 46.5352C13.139 45.1916 10.9659 43.2357 9.34435 40.7351C7.89559 38.4986 6.80902 36.0456 5.75104 33.6069C4.95875 31.7793 4.1462 29.6105 3.42182 27.4108C5.00045 22.6999 7.1307 17.7784 9.06198 14.3659C10.0699 12.5836 11.3054 10.97 12.865 9.63356C14.4257 8.29827 16.276 7.33753 18.168 6.56466C21.7541 5.09977 25.4678 4.17113 29.3661 4.39824C33.909 4.6634 38.2552 6.44576 42.0261 8.92727C42.9899 9.56459 43.9526 10.2542 44.8593 11.0057C44.8461 11.2756 44.8747 11.5289 44.9343 11.7726C45.0177 12.1008 45.1738 12.3921 45.3644 12.6739C45.4609 12.8083 45.5681 12.9415 45.6873 13.0663C45.8017 13.1959 45.9268 13.3184 46.0578 13.4337C46.3283 13.6656 46.6071 13.8844 46.9025 14.0829C47.4887 14.4789 48.0916 14.8154 48.5467 15.0603C48.7754 15.1828 48.9661 15.2827 49.1019 15.3481C49.1674 15.3825 49.2186 15.4075 49.2532 15.4253C49.2866 15.4384 49.3032 15.4456 49.3032 15.4456V15.3921C49.3009 15.3528 49.2925 15.2957 49.283 15.222C49.2615 15.0722 49.2234 14.8546 49.1627 14.5978C49.0376 14.0794 48.8076 13.3873 48.443 12.7203C48.0749 12.058 47.5828 11.4112 46.9704 11.0116C46.6702 10.8059 46.3366 10.6668 45.9899 10.605C45.7028 10.5479 45.3954 10.5586 45.0809 10.6395C42.9935 8.88685 40.5928 7.4386 38.1873 6.31496C35.2136 4.92974 31.9955 4.09147 28.7108 3.96424C24.9376 3.82037 21.3216 4.84413 17.8618 6.26027C15.0762 7.3958 12.5457 9.02121 10.612 11.347L10.6132 11.3505Z" fill="#5C8171"/>
<path d="M3.75889 38.923C3.90544 39.7839 4.18423 40.5758 4.42847 41.1489C4.6739 41.7173 4.88001 42.0728 4.88001 42.0728C4.88001 42.0728 5.02537 41.7101 5.21123 41.1525C5.40185 40.5925 5.63895 39.8469 5.83196 39.0598C6.0202 38.2726 6.16317 37.4534 6.12862 36.6996C6.11313 36.3203 6.0476 35.9624 5.92489 35.6152C5.79979 35.2656 5.60916 34.9422 5.34109 34.5854C4.55118 34.8137 4.05317 35.5034 3.82442 36.3143C3.58733 37.1288 3.60758 38.0646 3.75889 38.923Z" fill="#5C8171"/>
<path d="M6.58727 34.6913C6.6528 35.0385 6.81721 35.3607 7.03286 35.6544C7.47368 36.2358 8.14564 36.6805 8.83309 36.9885C9.52173 37.2964 10.2294 37.4617 10.7584 37.5521C11.0217 37.5961 11.2433 37.621 11.397 37.6365C11.5483 37.6496 11.6389 37.6543 11.6389 37.6543C11.6389 37.6543 11.4935 37.3832 11.2433 36.9837C10.9907 36.583 10.6393 36.0551 10.2163 35.5343C9.79456 35.0194 9.3037 34.5153 8.73658 34.1621C8.1659 33.8102 7.51419 33.5866 6.68854 33.6092C6.53485 33.9671 6.51698 34.3417 6.58727 34.6913Z" fill="#5C8171"/>
<path d="M9.59692 44.7184C9.57071 43.9051 9.51352 43.074 9.29668 42.3653C9.07508 41.6554 8.69502 41.0621 7.99685 40.6733C7.338 41.1596 7.0318 41.8588 6.99606 42.6447C6.95674 43.4319 7.18669 44.3046 7.55126 45.1024C7.91345 45.9015 8.4055 46.6244 8.83084 47.1357C9.03695 47.3925 9.22996 47.5959 9.36221 47.7373C9.50041 47.8777 9.58143 47.9526 9.58143 47.9526C9.58143 47.9526 9.58858 47.5626 9.5993 46.9443C9.60407 46.3379 9.62075 45.5329 9.59692 44.7196V44.7184Z" fill="#5C8171"/>
<path d="M9.20872 39.3C9.16702 40.0728 9.54232 40.6983 10.1106 41.1477C10.6789 41.5912 11.4367 41.8599 12.1742 41.9658C12.9164 42.0752 13.6253 42.0395 14.1412 41.9527C14.3985 41.9135 14.6058 41.8683 14.756 41.8302C14.9013 41.7922 14.9823 41.7636 14.9823 41.7636C14.9823 41.7636 14.9335 41.7161 14.8441 41.6352C14.756 41.5484 14.6273 41.4283 14.4629 41.2904C14.1376 41.0027 13.6884 40.6127 13.1595 40.2262C12.6281 39.8457 12.0205 39.4664 11.358 39.25C10.6908 39.0396 9.96885 38.9837 9.2111 39.3H9.20872Z" fill="#5C8171"/>
<path d="M13.2535 49.9763C13.3523 50.0572 13.4512 50.1368 13.5513 50.2153L13.7026 50.3283L13.8253 50.4186C13.985 50.534 14.1458 50.6422 14.3019 50.7432C14.6117 50.9477 14.9095 51.1237 15.1669 51.27C15.4254 51.4127 15.6434 51.5232 15.7971 51.5981C15.9532 51.6707 16.0449 51.704 16.0449 51.704C16.0449 51.704 15.9401 51.3437 15.7662 50.7825C15.5886 50.2296 15.3313 49.5007 14.9977 48.7932C14.9119 48.6137 14.8249 48.4377 14.7272 48.2641C14.6224 48.0774 14.514 47.8943 14.4067 47.7195C14.2971 47.5423 14.1935 47.3676 14.0803 47.2035C13.9707 47.0406 13.8623 46.8765 13.7419 46.7314C13.2749 46.1345 12.7388 45.6922 11.9489 45.5091C11.4568 46.1643 11.3722 46.9336 11.6284 47.7255C11.8762 48.5138 12.4731 49.3223 13.2523 49.9739L13.2535 49.9763Z" fill="#5C8171"/>
<path d="M16.5477 45.2297C17.2804 45.0228 17.9416 44.7243 18.4158 44.4782C18.6529 44.3534 18.8412 44.244 18.9758 44.1548C19.108 44.068 19.1819 44.0169 19.1819 44.0169C19.1819 44.0169 19.1068 43.9883 18.9806 43.9408C18.8507 43.8849 18.6648 43.8064 18.4361 43.722C18.2073 43.6364 17.9381 43.5448 17.6366 43.4628C17.3447 43.3807 16.9694 43.2904 16.7478 43.2666C16.2284 43.1964 15.6017 43.1132 14.944 43.1489C14.2876 43.1917 13.5894 43.3558 12.9556 43.873C13.1295 44.6197 13.6859 45.1072 14.3686 45.3212C14.5401 45.37 14.7153 45.4128 14.8976 45.4306C15.0799 45.4461 15.2621 45.452 15.4456 45.4413C15.6303 45.4259 15.8102 45.3997 15.9877 45.3652C16.176 45.3272 16.3654 45.2808 16.5477 45.2321V45.2297Z" fill="#5C8171"/>
<path d="M22.2714 53.4982C22.443 53.5398 22.5418 53.5565 22.5418 53.5565C22.5418 53.5565 22.3667 53.2259 22.0832 52.7016C21.7996 52.1891 21.4076 51.5161 20.9489 50.8812C20.4986 50.2224 19.9874 49.572 19.4013 49.1511C19.2523 49.0477 19.1046 48.9419 18.9509 48.8551C18.7972 48.7683 18.6376 48.6957 18.4708 48.647C18.1396 48.5423 17.7798 48.515 17.3866 48.5804C17.1578 49.364 17.3342 50.0869 17.7512 50.7373C17.8548 50.9002 17.9751 51.0571 18.105 51.2117C18.2349 51.3603 18.3755 51.5125 18.5303 51.6433C18.8425 51.9061 19.1892 52.1511 19.5395 52.3663C20.24 52.8181 21.0073 53.0904 21.578 53.2854C21.8627 53.3805 22.1046 53.4542 22.2714 53.5006V53.4982Z" fill="#5C8171"/>
<path d="M18.0359 46.7065C18.2527 47.018 18.5303 47.2439 18.8389 47.3961C18.9926 47.4734 19.1546 47.5293 19.3214 47.5733C19.4906 47.6137 19.661 47.6458 19.8432 47.6434C20.5652 47.6482 21.3242 47.4413 21.9985 47.1214C22.6764 46.7814 23.2602 46.3652 23.6713 46.0347C23.875 45.867 24.0358 45.7255 24.1478 45.6125C24.2598 45.5043 24.3206 45.4378 24.3206 45.4378C24.3206 45.4378 24.2455 45.4223 24.1145 45.4009C23.9822 45.3724 23.794 45.3296 23.5616 45.2903C23.1006 45.2035 22.4691 45.1643 21.7948 45.1203C21.4564 45.106 21.1061 45.1203 20.7523 45.1667C20.6641 45.1797 20.5771 45.1928 20.489 45.2035C20.4032 45.2154 20.3174 45.2297 20.2304 45.2428C20.0589 45.2749 19.8885 45.3177 19.7229 45.3724C19.0581 45.5888 18.4433 45.993 18.0347 46.7065H18.0359Z" fill="#5C8171"/>
<path d="M27.2322 51.7503C27.0868 51.616 26.9355 51.4876 26.7818 51.3627C26.6281 51.2402 26.472 51.1154 26.3172 50.9894C26.0038 50.7504 25.6809 50.5423 25.3521 50.3913C25.1901 50.314 25.0209 50.2569 24.8541 50.207C24.6849 50.1499 24.5157 50.1107 24.343 50.0928C23.9987 50.0548 23.6424 50.0928 23.2695 50.2343C23.1921 51.0464 23.5042 51.7254 24.0487 52.2854C24.1845 52.4233 24.3346 52.5565 24.4943 52.6814C24.6563 52.8015 24.8303 52.9049 25.0126 53.0072C25.3771 53.2069 25.7691 53.3758 26.1694 53.5196C26.3672 53.5969 26.5685 53.6469 26.7711 53.6944C26.9689 53.742 27.1643 53.7824 27.3549 53.8181C27.7349 53.8894 28.09 53.9512 28.3974 53.9727C29.0098 54.0083 29.416 53.9976 29.416 53.9976C29.416 53.9976 29.1634 53.698 28.7643 53.2783C28.3628 52.8704 27.8243 52.2807 27.2345 51.7492L27.2322 51.7503Z" fill="#5C8171"/>
<path d="M24.6158 48.817C24.7802 48.8622 24.9494 48.8907 25.121 48.899C25.2949 48.9038 25.4677 48.8788 25.644 48.8467C25.9931 48.7801 26.3422 48.6565 26.6734 48.4948C26.7568 48.4543 26.8378 48.4103 26.9188 48.3675C26.9998 48.3188 27.0785 48.2653 27.1583 48.213C27.3144 48.1071 27.4681 47.9906 27.611 47.8741C27.8982 47.641 28.1591 47.3937 28.3854 47.1524C28.4998 47.037 28.6047 46.911 28.7012 46.7897C28.7953 46.6696 28.8835 46.5531 28.9597 46.4473C29.2695 46.0156 29.4387 45.7148 29.4387 45.7148C29.4387 45.7148 29.142 45.7101 28.6952 45.7576C28.5832 45.7766 28.4605 45.7802 28.3306 45.7873C28.1984 45.798 28.0626 45.8099 27.9184 45.8278C27.6313 45.8611 27.3191 45.9253 26.9986 45.9871C26.6781 46.0418 26.3469 46.1215 26.0217 46.2368C25.862 46.2939 25.7012 46.3593 25.5427 46.4342C25.3843 46.5008 25.2306 46.5733 25.084 46.6601C24.4895 47.0002 23.9736 47.5174 23.7056 48.2926C23.9772 48.559 24.287 48.7266 24.6158 48.817Z" fill="#5C8171"/>
<path d="M31.3927 50.2712C31.0365 50.1891 30.691 50.1665 30.3478 50.2201C30.1763 50.2438 30.0095 50.2985 29.8403 50.3568C29.6735 50.4151 29.5067 50.4959 29.3423 50.6005C29.459 51.4091 29.9189 52.0333 30.5873 52.4162C30.9185 52.6171 31.301 52.7705 31.7049 52.893C32.1088 52.9988 32.5317 53.0547 32.9558 53.0904C33.1667 53.107 33.38 53.1201 33.5861 53.1225C33.7898 53.1154 33.99 53.1047 34.183 53.0904C34.569 53.0618 34.9288 53.0202 35.2326 52.975C35.8343 52.8514 36.2203 52.7361 36.2203 52.7361C36.2203 52.7361 35.9022 52.5149 35.4078 52.2069C35.1647 52.0571 34.874 51.8811 34.5535 51.6861C34.2354 51.4959 33.8947 51.3009 33.5444 51.119C33.1953 50.9466 32.8308 50.7563 32.4709 50.6065C32.1088 50.4507 31.7489 50.3425 31.3939 50.2724L31.3927 50.2712Z" fill="#5C8171"/>
<path d="M31.4966 48.7231C31.817 48.5768 32.1173 48.358 32.3949 48.1178C32.5331 47.9954 32.6653 47.8658 32.7904 47.7326C32.9155 47.5982 33.0275 47.4413 33.1371 47.295C33.5672 46.6898 33.877 46.0798 34.0617 45.5721C34.2463 45.0799 34.3274 44.7446 34.3274 44.7446C34.3274 44.7446 34.0462 44.8147 33.634 44.9764C33.4231 45.0454 33.1753 45.125 32.9143 45.2368C32.7821 45.2879 32.6463 45.3498 32.5081 45.4164C32.3699 45.4806 32.2245 45.5353 32.0827 45.609C31.7956 45.7422 31.5049 45.9098 31.2273 46.1024C30.9461 46.2748 30.6781 46.4817 30.4374 46.7255C29.9608 47.2284 29.5855 47.8158 29.5093 48.6339C29.6689 48.7338 29.8345 48.811 30.0013 48.8646C30.1705 48.9193 30.3397 48.93 30.5065 48.9359C30.8449 48.9359 31.1796 48.8562 31.5001 48.7219L31.4966 48.7231Z" fill="#5C8171"/>
<path d="M42.4087 49.8372C42.4087 49.8372 42.0549 49.704 41.4973 49.5126C40.9421 49.3223 40.2153 49.1083 39.4385 48.9097C39.0525 48.8122 38.6677 48.7468 38.2793 48.6862C37.8909 48.6279 37.5132 48.6006 37.1605 48.6279C36.983 48.647 36.8055 48.66 36.6363 48.6933C36.4648 48.7278 36.3003 48.7766 36.1443 48.8455C35.9882 48.9133 35.8369 49.0001 35.6939 49.1059C35.5486 49.2058 35.4104 49.3259 35.2793 49.4686C35.4389 49.8491 35.6677 50.1523 35.9524 50.3925C36.236 50.6386 36.5672 50.7908 36.9377 50.9049C37.1248 50.962 37.3178 51.0024 37.5168 51.0345C37.7193 51.0619 37.9254 51.0833 38.1292 51.0797C38.5414 51.0774 38.9679 51.0345 39.3825 50.9691C40.1987 50.8063 40.9755 50.5447 41.5152 50.2855C41.7892 50.1642 42.0156 50.0524 42.1716 49.9739C42.3229 49.8895 42.4063 49.8372 42.4063 49.8372H42.4087Z" fill="#5C8171"/>
<path d="M36.6447 47.4092C36.796 47.3319 36.9413 47.2439 37.0724 47.1262C37.3405 46.8979 37.5799 46.6232 37.7837 46.3224C37.9874 46.0204 38.1506 45.6708 38.2865 45.3355C38.3544 45.1655 38.4163 44.9954 38.4687 44.829C38.5212 44.6625 38.5629 44.4889 38.5986 44.3236C38.6749 43.9978 38.7237 43.6958 38.7547 43.4366C38.788 43.1786 38.8047 42.9658 38.8095 42.8112C38.8154 42.653 38.8154 42.5686 38.8154 42.5686C38.8154 42.5686 38.7523 42.6031 38.6427 42.6744C38.5307 42.7398 38.3722 42.8302 38.1864 42.9562C38.0923 43.0181 37.9934 43.0847 37.8873 43.1619C37.8349 43.2012 37.7825 43.2404 37.7277 43.282C37.6705 43.3177 37.6133 43.3581 37.5561 43.3998C37.3238 43.5627 37.0795 43.7553 36.8425 43.9729C36.597 44.1738 36.3575 44.4021 36.1383 44.6566C36.0811 44.7208 36.0287 44.7897 35.9763 44.8516C35.9215 44.9158 35.8715 44.98 35.8202 45.0466C35.7189 45.1785 35.6272 45.3189 35.5438 45.4675C35.3746 45.7576 35.2436 46.0917 35.1685 46.4318C35.0923 46.7719 35.0744 47.1452 35.1423 47.5483C35.3222 47.6042 35.4997 47.6387 35.6761 47.6458C35.8476 47.6458 36.0144 47.6256 36.1765 47.584C36.3385 47.5435 36.4946 47.4817 36.6459 47.4068L36.6447 47.4092Z" fill="#5C8171"/>
<path d="M40.6989 46.8991C41.191 47.5507 41.8773 47.8515 42.6457 47.9002C43.0258 47.9205 43.4273 47.8777 43.8288 47.7932C44.2279 47.7064 44.6187 47.5673 45.0023 47.408C45.38 47.2487 45.7315 47.0525 46.0555 46.8634C46.3784 46.6755 46.6572 46.4686 46.8979 46.2974C47.1374 46.125 47.3232 45.9657 47.4531 45.8515C47.5806 45.7398 47.6532 45.6744 47.6532 45.6744C47.6532 45.6744 47.2708 45.6125 46.7049 45.5519C46.4177 45.5186 46.0794 45.4841 45.7196 45.458C45.5397 45.4437 45.3526 45.433 45.1644 45.4259C44.9714 45.4152 44.776 45.4045 44.5782 45.4021C43.7966 45.3938 42.9865 45.4282 42.3062 45.6363C41.9618 45.7362 41.6497 45.8801 41.3804 46.0893C41.1064 46.2903 40.8729 46.5507 40.6978 46.8991H40.6989Z" fill="#5C8171"/>
<path d="M42.0619 44.219C42.4789 43.659 42.7291 42.9265 42.8363 42.1976C42.8935 41.8397 42.9149 41.4759 42.9173 41.1394C42.9173 40.8053 42.9042 40.4997 42.8804 40.2369C42.8256 39.7078 42.7529 39.3701 42.7529 39.3701C42.7529 39.3701 42.6957 39.4177 42.6016 39.508C42.5075 39.5984 42.3776 39.7375 42.2156 39.8933C42.0559 40.0538 41.8796 40.2571 41.689 40.4747C41.496 40.6876 41.3006 40.9373 41.1099 41.1989C40.9169 41.4569 40.7346 41.7434 40.5762 42.0407C40.4118 42.3332 40.2736 42.6435 40.183 42.9753C39.9924 43.6233 39.9614 44.3343 40.2926 45.0906C40.6655 45.1084 41.0063 45.0335 41.3041 44.8825C41.596 44.7208 41.8486 44.4913 42.0607 44.219H42.0619Z" fill="#5C8171"/>
<path d="M13.3389 27.6379H8.62091C8.72337 28.2039 8.95689 28.6177 9.32146 28.8793C9.68603 29.1397 10.0828 29.2705 10.5117 29.2705C11.1729 29.2705 11.7269 28.9958 12.1737 28.4476L13.0244 29.0897C12.3858 29.9149 11.5292 30.3275 10.4569 30.3275C9.6348 30.3275 8.94616 30.0469 8.39216 29.4845C7.83815 28.9221 7.56055 28.2253 7.56055 27.3906C7.56055 26.6106 7.84053 25.934 8.40169 25.3609C8.96284 24.7878 9.64672 24.5012 10.4557 24.5012C11.2647 24.5012 11.933 24.7925 12.5002 25.374C13.0673 25.9554 13.3473 26.7105 13.3377 27.6379H13.3389ZM8.74005 26.7081H12.1177C11.7424 25.9495 11.1884 25.5714 10.4557 25.5714C9.65625 25.5714 9.08437 25.9507 8.74005 26.7081Z" fill="#5C8171"/>
<path d="M14.1099 24.6546H15.3323L16.9145 27.846L18.4514 24.6546H19.6809L16.8954 30.381L14.1111 24.6546H14.1099Z" fill="#5C8171"/>
<path d="M25.9395 27.6379H21.2203C21.3228 28.2039 21.5563 28.6177 21.9209 28.8793C22.2854 29.1397 22.6822 29.2705 23.1111 29.2705C23.7723 29.2705 24.3263 28.9958 24.7731 28.4476L25.625 29.0897C24.9864 29.9149 24.1297 30.3275 23.0575 30.3275C22.2354 30.3275 21.5467 30.0469 20.9927 29.4845C20.4387 28.9221 20.1611 28.2253 20.1611 27.3906C20.1611 26.6106 20.4411 25.934 21.0023 25.3609C21.5634 24.7878 22.2473 24.5012 23.0563 24.5012C23.8652 24.5012 24.5336 24.7925 25.1007 25.374C25.6679 25.9554 25.9478 26.7105 25.9383 27.6379H25.9395ZM21.3418 26.7081H24.7195C24.3442 25.9495 23.7902 25.5714 23.0575 25.5714C22.258 25.5714 21.6861 25.9507 21.3418 26.7081Z" fill="#5C8171"/>
<path d="M27.0654 30.1729V24.6546H28.2044V25.5714C28.5392 25.2016 28.843 24.9305 29.1158 24.7581C29.3886 24.5868 29.6924 24.5 30.0272 24.5C30.5276 24.5 30.9553 24.6653 31.3104 24.9947C31.6654 25.3252 31.8429 25.7212 31.8429 26.1849V30.1717H30.6766V26.5262C30.6766 26.2277 30.5789 25.9804 30.3847 25.7842C30.1905 25.588 29.9438 25.4893 29.6436 25.4893C29.2552 25.4893 28.9192 25.6534 28.638 25.9804C28.3569 26.3086 28.2163 26.7045 28.2163 27.1682V30.1717H27.063L27.0654 30.1729Z" fill="#5C8171"/>
<path d="M33.6666 23.0494H34.833V24.6546H35.9863V25.7176H34.833V30.1729H33.6666V25.7176H32.748V24.6404H33.6666V23.0482V23.0494Z" fill="#5C8171"/>
<path d="M36.7969 22.8413C36.7969 22.6012 36.8862 22.3919 37.0649 22.2159C37.2437 22.0399 37.4557 21.952 37.7012 21.952C37.9466 21.952 38.1515 22.0399 38.3278 22.2159C38.5042 22.3919 38.5923 22.6 38.5923 22.8413C38.5923 23.0827 38.5042 23.2967 38.3278 23.4703C38.1515 23.6439 37.943 23.7307 37.7012 23.7307C37.4593 23.7307 37.2437 23.6439 37.0649 23.4703C36.8862 23.2967 36.7969 23.0863 36.7969 22.8413ZM37.1257 24.6546H38.279V30.1729H37.1257V24.6546Z" fill="#5C8171"/>
<path d="M40.3961 23.0494H41.5625V24.6546H42.7158V25.7176H41.5625V30.1729H40.3961V25.7176H39.4775V24.6404H40.3961V23.0482V23.0494Z" fill="#5C8171"/>
<path d="M43.3862 24.6546H44.7087L46.7139 27.6522L48.1007 24.6546H49.304L45.5689 32.7615H44.3513L46.1777 28.8139L43.3862 24.6546Z" fill="#5C8171"/>
</g>
<defs>
<clipPath id="clip0_1472_523">
<rect width="49.3043" height="54" fill="white"/>
</clipPath>
</defs>
</svg>
