<svg width="40" height="40" viewBox="0 0 40 40" fill="none" xmlns="http://www.w3.org/2000/svg">
<rect width="40" height="40" rx="20" fill="#5C8171"/>
<path d="M26.6518 27H13.3482C13.3479 27 13.3476 27 13.3473 26.9999C13.3374 26.9992 13.3168 26.9973 13.2894 26.9928C13.2299 26.9829 13.1658 26.9649 13.1139 26.9389C13.0658 26.9149 13.0482 26.8946 13.0404 26.8828L13.0402 26.8825C13.0356 26.8757 13 26.8226 13 26.6667C13 26.2568 13.2339 25.1803 14.2071 24.2071C15.151 23.2632 16.8776 22.3333 20 22.3333C23.1224 22.3333 24.849 23.2632 25.7929 24.2071C26.7661 25.1803 27 26.2568 27 26.6667C27 26.8226 26.9644 26.8757 26.9598 26.8825L26.9596 26.8828C26.9518 26.8946 26.9342 26.9149 26.8861 26.9389C26.8342 26.9649 26.7701 26.9829 26.7106 26.9928C26.6832 26.9973 26.6626 26.9992 26.6527 26.9999C26.6524 27 26.6521 27 26.6518 27ZM22.1213 18.1213C21.5587 18.6839 20.7957 19 20 19C19.2044 19 18.4413 18.6839 17.8787 18.1213C17.3161 17.5587 17 16.7956 17 16C17 15.2044 17.3161 14.4413 17.8787 13.8787C18.4413 13.3161 19.2044 13 20 13C20.7956 13 21.5587 13.3161 22.1213 13.8787C22.6839 14.4413 23 15.2044 23 16C23 16.7957 22.6839 17.5587 22.1213 18.1213Z" fill="white" stroke="white" stroke-width="2"/>
</svg>
